<?xml version="1.0" encoding="UTF-8"?>
<svg xmlns="http://www.w3.org/2000/svg" xmlns:xlink="http://www.w3.org/1999/xlink" width="200px" height="150px" viewBox="0 0 929 150" version="1.1">
<g id="surface1">
<path style=" stroke:none;fill-rule:nonzero;fill:rgb(0%,21.568627%,50.980392%);fill-opacity:1;" d="M 562.402344 114.863281 C 568.167969 95.507812 575.046875 72.421875 577.6875 63.554688 L 582.488281 47.433594 L 624.449219 47.273438 C 647.527344 47.1875 666.410156 47.210938 666.410156 47.324219 C 666.410156 47.441406 663.203125 58.230469 659.28125 71.304688 C 655.359375 84.375 652.257812 95.179688 652.390625 95.308594 C 652.519531 95.4375 660.5625 84.71875 670.265625 71.488281 L 687.902344 47.433594 L 731.398438 47.273438 C 755.320312 47.1875 774.890625 47.199219 774.890625 47.304688 C 774.890625 47.410156 772.265625 58.644531 769.054688 72.265625 C 765.839844 85.886719 763.261719 97.074219 763.320312 97.125 C 763.375 97.171875 772.039062 85.941406 782.570312 72.167969 L 801.71875 47.121094 L 847.816406 47.121094 C 873.167969 47.121094 893.910156 47.273438 893.910156 47.457031 C 893.910156 47.644531 876.296875 70.800781 854.773438 98.921875 L 815.636719 150.046875 L 756.832031 150.046875 C 724.488281 150.046875 698.023438 149.851562 698.023438 149.609375 C 698.023438 149.367188 700.265625 136.355469 703.007812 120.695312 C 705.75 105.03125 707.90625 91.96875 707.804688 91.664062 C 707.703125 91.359375 700.371094 100.53125 691.511719 112.046875 C 682.648438 123.558594 674.285156 134.203125 672.929688 135.699219 C 667.558594 141.601562 657.71875 147.148438 649.242188 149.046875 C 645.351562 149.921875 638.808594 150.046875 598.351562 150.046875 L 551.921875 150.046875 Z M 474.863281 73.527344 C 480.96875 72.4375 483.507812 71.3125 486.84375 68.238281 C 489.917969 65.40625 492.117188 60.953125 492.621094 56.539062 C 493.210938 51.425781 489.582031 47.882812 482.355469 46.511719 C 480.464844 46.152344 468.675781 45.882812 454.996094 45.882812 L 430.957031 45.882812 L 426.472656 59.367188 C 424.007812 66.785156 421.863281 73.203125 421.707031 73.628906 C 421.285156 74.777344 468.378906 74.691406 474.863281 73.527344 Z M 319.890625 149.796875 C 319.890625 149.65625 328.398438 120.988281 338.796875 86.089844 C 350.839844 45.648438 358.429688 21.183594 359.714844 18.636719 C 362.558594 13.007812 368.226562 7.527344 374.410156 4.429688 C 383.800781 -0.269531 379.660156 -0.0625 460.605469 0.136719 L 532.824219 0.316406 L 537.785156 1.707031 C 553.65625 6.144531 563.613281 15.828125 566.957031 30.070312 C 568.457031 36.453125 567.898438 47.46875 565.703125 54.875 C 563.925781 60.867188 560.480469 68.242188 557.308594 72.855469 C 547.332031 87.359375 529.074219 98.179688 508.882812 101.546875 L 502.296875 102.644531 L 516.390625 126.191406 L 530.480469 149.738281 L 482.371094 149.898438 C 455.910156 149.988281 433.949219 149.941406 433.570312 149.796875 C 433.191406 149.652344 429.335938 142.976562 425.003906 134.96875 C 420.671875 126.957031 416.785156 119.9375 416.367188 119.363281 C 415.71875 118.476562 415.363281 119.136719 413.96875 123.804688 C 410.21875 136.328125 400.550781 145.539062 387.710938 148.824219 C 383.25 149.964844 380.761719 150.046875 351.40625 150.046875 C 334.074219 150.046875 319.890625 149.933594 319.890625 149.796875 Z M 0 149.582031 C -0.015625 149.328125 9.957031 115.570312 22.160156 74.566406 L 44.351562 0.015625 L 102.777344 0.0078125 L 161.199219 0 L 161.199219 1.433594 C 161.199219 4.273438 165.546875 90.738281 165.695312 90.890625 C 165.78125 90.972656 176.589844 74.402344 189.714844 54.066406 C 202.84375 33.726562 214.628906 15.691406 215.910156 13.984375 C 220.4375 7.9375 227.6875 3.339844 236.0625 1.199219 C 240.503906 0.0625 243.375 0 291.796875 0 L 342.851562 0 L 342.492188 1.394531 C 342.296875 2.164062 332.3125 35.855469 320.308594 76.265625 L 298.476562 149.738281 L 256.804688 149.898438 C 231.269531 149.996094 215.132812 149.832031 215.132812 149.476562 C 215.132812 149.160156 219.453125 132.351562 224.738281 112.125 C 230.023438 91.902344 234.347656 75.210938 234.347656 75.035156 C 234.347656 74.859375 223.050781 91.664062 209.242188 112.382812 L 184.132812 150.046875 L 148.800781 150.046875 C 126.125 150.046875 113.46875 149.832031 113.46875 149.441406 C 113.46875 148.402344 107.265625 75.378906 107.109375 74.566406 C 107.027344 74.140625 103.507812 85.582031 99.289062 99.988281 C 95.070312 114.390625 90.773438 127.992188 89.742188 130.207031 C 87.351562 135.332031 80.085938 142.722656 74.609375 145.589844 C 66.425781 149.878906 64.75 150.046875 30.613281 150.046875 C 13.792969 150.046875 0.015625 149.839844 0 149.582031 Z M 0 149.582031 "/>
<path style=" stroke:none;fill-rule:nonzero;fill:rgb(85.882353%,0%,13.72549%);fill-opacity:1;" d="M 810.84375 34.355469 C 810.84375 33.332031 828.097656 13.433594 831.160156 10.921875 C 836.019531 6.9375 844.78125 2.730469 850.644531 1.566406 C 854.609375 0.78125 861.726562 0.621094 892.386719 0.621094 C 914.203125 0.621094 929.261719 0.851562 929.140625 1.183594 C 929.027344 1.492188 923.074219 9.152344 915.914062 18.207031 L 902.898438 34.667969 L 856.871094 34.695312 C 831.558594 34.710938 810.84375 34.558594 810.84375 34.355469 Z M 696.269531 34.191406 C 696.382812 33.898438 702.195312 26.226562 709.183594 17.140625 L 721.890625 0.625 L 753.703125 0.621094 C 783.714844 0.621094 785.492188 0.679688 785.171875 1.707031 C 784.984375 2.300781 783.277344 9.488281 781.375 17.671875 C 779.476562 25.855469 777.777344 33.039062 777.605469 33.636719 C 777.304688 34.65625 774.820312 34.722656 736.675781 34.722656 C 714.335938 34.722656 696.15625 34.484375 696.269531 34.191406 Z M 586.445312 33.757812 C 586.445312 33.222656 588.675781 25.667969 591.402344 16.976562 C 594.132812 8.28125 596.363281 1.042969 596.363281 0.894531 C 596.363281 0.742188 615.191406 0.621094 638.207031 0.621094 C 661.21875 0.621094 680.042969 0.828125 680.035156 1.085938 C 680.027344 1.339844 677.714844 8.945312 674.898438 17.980469 L 669.773438 34.410156 L 628.109375 34.570312 C 590.597656 34.714844 586.445312 34.632812 586.445312 33.757812 Z M 586.445312 33.757812 "/>
</g>
</svg>
